{
  "accessors": [
    {
      "bufferView": 2,
      "componentType": 5126,
      "count": 4,
      "max": [
        167.0288848876953,
        167.0288848876953,
        0.0
      ],
      "min": [
        -167.0288848876953,
        -167.0288848876953,
        0.0
      ],
      "type": "VEC3"
    },
    {
      "bufferView": 2,
      "byteOffset": 48,
      "componentType": 5126,
      "count": 4,
      "max": [
        0.0,
        0.0,
        1.0
      ],
      "min": [
        0.0,
        0.0,
        1.0
      ],
      "type": "VEC3"
    },
    {
      "bufferView": 1,
      "componentType": 5126,
      "count": 4,
      "max": [
        1.0,
        1.0
      ],
      "min": [
        2.9802322387695313e-08,
        2.9802322387695313e-08
      ],
      "type": "VEC2"
    },
    {
      "bufferView": 0,
      "componentType": 5125,
      "count": 6,
      "type": "SCALAR"
    },
    {
      "bufferView": 2,
      "byteOffset": 96,
      "componentType": 5126,
      "count": 3808,
      "max": [
        29.985198974609375,
        29.9986572265625,
        29.987573623657227
      ],
      "min": [
        -29.985198974609375,
        -29.9986572265625,
        19.800987243652344
      ],
      "type": "VEC3"
    },
    {
      "bufferView": 2,
      "byteOffset": 45792,
      "componentType": 5126,
      "count": 3808,
      "max": [
        0.9995066523551941,
        0.9999613761901855,
        1.0
      ],
      "min": [
        -0.9995066523551941,
        -0.9999613761901855,
        -1.0
      ],
      "type": "VEC3"
    },
    {
      "bufferView": 1,
      "byteOffset": 32,
      "componentType": 5126,
      "count": 3808,
      "max": [
        0.9961045980453491,
        0.9845445156097412
      ],
      "min": [
        0.015335286036133766,
        0.07639939337968826
      ],
      "type": "VEC2"
    },
    {
      "bufferView": 0,
      "byteOffset": 24,
      "componentType": 5125,
      "count": 16074,
      "type": "SCALAR"
    },
    {
      "bufferView": 2,
      "byteOffset": 91488,
      "componentType": 5126,
      "count": 2066,
      "max": [
        28.424219131469727,
        28.42422103881836,
        19.833507537841797
      ],
      "min": [
        -28.424219131469727,
        -28.42421531677246,
        0.036431849002838135
      ],
      "type": "VEC3"
    },
    {
      "bufferView": 2,
      "byteOffset": 116280,
      "componentType": 5126,
      "count": 2066,
      "max": [
        1.0,
        1.0,
        0.6163356900215149
      ],
      "min": [
        -1.0,
        -1.0,
        -0.6838776469230652
      ],
      "type": "VEC3"
    },
    {
      "bufferView": 1,
      "byteOffset": 30496,
      "componentType": 5126,
      "count": 2066,
      "max": [
        0.5785051584243774,
        0.9923948049545288
      ],
      "min": [
        0.34834885597229004,
        0.7009627819061279
      ],
      "type": "VEC2"
    },
    {
      "bufferView": 0,
      "byteOffset": 64320,
      "componentType": 5125,
      "count": 7848,
      "type": "SCALAR"
    },
    {
      "bufferView": 2,
      "byteOffset": 141072,
      "componentType": 5126,
      "count": 1952,
      "max": [
        28.480636596679688,
        28.480636596679688,
        19.874732971191406
      ],
      "min": [
        -28.480636596679688,
        -28.480634689331055,
        0.0
      ],
      "type": "VEC3"
    },
    {
      "bufferView": 2,
      "byteOffset": 164496,
      "componentType": 5126,
      "count": 1952,
      "max": [
        1.0,
        1.0,
        1.0
      ],
      "min": [
        -1.0,
        -1.0,
        -1.0
      ],
      "type": "VEC3"
    },
    {
      "bufferView": 1,
      "byteOffset": 47024,
      "componentType": 5126,
      "count": 1952,
      "max": [
        0.9424960613250732,
        0.12150093168020248
      ],
      "min": [
        0.20539723336696625,
        0.09580104798078537
      ],
      "type": "VEC2"
    },
    {
      "bufferView": 0,
      "byteOffset": 95712,
      "componentType": 5125,
      "count": 7440,
      "type": "SCALAR"
    },
    {
      "bufferView": 2,
      "byteOffset": 187920,
      "componentType": 5126,
      "count": 2102,
      "max": [
        29.999998092651367,
        29.9408016204834,
        40.68960189819336
      ],
      "min": [
        -29.999998092651367,
        -29.940805435180664,
        35.44805145263672
      ],
      "type": "VEC3"
    },
    {
      "bufferView": 2,
      "byteOffset": 213144,
      "componentType": 5126,
      "count": 2102,
      "max": [
        1.0,
        0.9980269074440002,
        1.0
      ],
      "min": [
        -1.0,
        -0.9980269074440002,
        -1.0
      ],
      "type": "VEC3"
    },
    {
      "bufferView": 1,
      "byteOffset": 62640,
      "componentType": 5126,
      "count": 2102,
      "max": [
        0.4700469374656677,
        0.999500036239624
      ],
      "min": [
        0.09580106288194656,
        0.1243913546204567
      ],
      "type": "VEC2"
    },
    {
      "bufferView": 0,
      "byteOffset": 125472,
      "componentType": 5125,
      "count": 9000,
      "type": "SCALAR"
    },
    {
      "bufferView": 2,
      "byteOffset": 238368,
      "componentType": 5126,
      "count": 3630,
      "max": [
        29.999998092651367,
        29.9986572265625,
        36.493778228759766
      ],
      "min": [
        -29.999998092651367,
        -29.9986572265625,
        28.981170654296875
      ],
      "type": "VEC3"
    },
    {
      "bufferView": 2,
      "byteOffset": 281928,
      "componentType": 5126,
      "count": 3630,
      "max": [
        1.0,
        0.9999613165855408,
        1.0
      ],
      "min": [
        -1.0,
        -0.9999613165855408,
        -1.0
      ],
      "type": "VEC3"
    },
    {
      "bufferView": 1,
      "byteOffset": 79456,
      "componentType": 5126,
      "count": 3630,
      "max": [
        0.9937604665756226,
        0.9955108165740967
      ],
      "min": [
        0.0005000000237487257,
        0.0005000000237487257
      ],
      "type": "VEC2"
    },
    {
      "bufferView": 0,
      "byteOffset": 161472,
      "componentType": 5125,
      "count": 15804,
      "type": "SCALAR"
    }
  ],
  "asset": {
    "extras": {
      "author": "MADE.COM (https://sketchfab.com/made-it)",
      "license": "CC-BY-NC-4.0 (http://creativecommons.org/licenses/by-nc/4.0/)",
      "source": "https://sketchfab.com/3d-models/cairn-coffee-table-tonal-pink-de3dfc6da4b64fb3bf074ec732839bf3",
      "title": "Cairn Coffee Table, Tonal Pink"
    },
    "generator": "Sketchfab-12.68.0",
    "version": "2.0"
  },
  "bufferViews": [
    {
      "buffer": 0,
      "byteLength": 224688,
      "name": "floatBufferViews",
      "target": 34963
    },
    {
      "buffer": 0,
      "byteLength": 108496,
      "byteOffset": 224688,
      "byteStride": 8,
      "name": "floatBufferViews",
      "target": 34962
    },
    {
      "buffer": 0,
      "byteLength": 325488,
      "byteOffset": 333184,
      "byteStride": 12,
      "name": "floatBufferViews",
      "target": 34962
    }
  ],
  "buffers": [
    {
      "byteLength": 658672,
      "uri": "scene.bin"
    }
  ],
  "images": [
    {
      "uri": "textures/FLOOR_baseColor.png"
    },
    {
      "uri": "textures/COLOUR_DARK_baseColor.jpeg"
    }
  ],
  "materials": [
    {
      "alphaMode": "BLEND",
      "doubleSided": true,
      "name": "FLOOR",
      "pbrMetallicRoughness": {
        "baseColorFactor": [
          0.588,
          0.588,
          0.588,
          1.0
        ],
        "baseColorTexture": {
          "index": 0
        },
        "metallicFactor": 0.0,
        "roughnessFactor": 0.8929713596
      }
    },
    {
      "doubleSided": true,
      "name": "COLOUR_DARK",
      "pbrMetallicRoughness": {
        "baseColorTexture": {
          "index": 1
        },
        "metallicFactor": 0.0,
        "roughnessFactor": 0.8929713596
      }
    },
    {
      "doubleSided": true,
      "name": "WOOD",
      "pbrMetallicRoughness": {
        "baseColorTexture": {
          "index": 1
        },
        "metallicFactor": 0.0,
        "roughnessFactor": 0.8929713596
      }
    },
    {
      "doubleSided": true,
      "name": "WOOD_EGDE",
      "pbrMetallicRoughness": {
        "baseColorTexture": {
          "index": 1
        },
        "metallicFactor": 0.0,
        "roughnessFactor": 0.8929713596
      }
    },
    {
      "doubleSided": true,
      "name": "COLOUR_BRIGHT",
      "pbrMetallicRoughness": {
        "baseColorTexture": {
          "index": 1
        },
        "metallicFactor": 0.0,
        "roughnessFactor": 0.8929713596
      }
    },
    {
      "doubleSided": true,
      "name": "COLOUR_MID",
      "pbrMetallicRoughness": {
        "baseColorTexture": {
          "index": 1
        },
        "metallicFactor": 0.0,
        "roughnessFactor": 0.8929713596
      }
    }
  ],
  "meshes": [
    {
      "name": "Plane001_FLOOR_0",
      "primitives": [
        {
          "attributes": {
            "NORMAL": 1,
            "POSITION": 0,
            "TEXCOORD_0": 2
          },
          "indices": 3,
          "material": 0,
          "mode": 4
        }
      ]
    },
    {
      "name": "COLOUR_DARK001_COLOUR_DARK_0",
      "primitives": [
        {
          "attributes": {
            "NORMAL": 5,
            "POSITION": 4,
            "TEXCOORD_0": 6
          },
          "indices": 7,
          "material": 1,
          "mode": 4
        }
      ]
    },
    {
      "name": "WOOD001_WOOD_0",
      "primitives": [
        {
          "attributes": {
            "NORMAL": 9,
            "POSITION": 8,
            "TEXCOORD_0": 10
          },
          "indices": 11,
          "material": 2,
          "mode": 4
        }
      ]
    },
    {
      "name": "WOOD_EGDE001_WOOD_EGDE_0",
      "primitives": [
        {
          "attributes": {
            "NORMAL": 13,
            "POSITION": 12,
            "TEXCOORD_0": 14
          },
          "indices": 15,
          "material": 3,
          "mode": 4
        }
      ]
    },
    {
      "name": "COLOUR_BRIGHT001_COLOUR_BRIGHT_0",
      "primitives": [
        {
          "attributes": {
            "NORMAL": 17,
            "POSITION": 16,
            "TEXCOORD_0": 18
          },
          "indices": 19,
          "material": 4,
          "mode": 4
        }
      ]
    },
    {
      "name": "COLOUR_MID001_COLOUR_MID_0",
      "primitives": [
        {
          "attributes": {
            "NORMAL": 21,
            "POSITION": 20,
            "TEXCOORD_0": 22
          },
          "indices": 23,
          "material": 5,
          "mode": 4
        }
      ]
    }
  ],
  "nodes": [
    {
      "children": [
        1
      ],
      "matrix": [
        1.0,
        0.0,
        0.0,
        0.0,
        0.0,
        2.220446049250313e-16,
        -1.0,
        0.0,
        0.0,
        1.0,
        2.220446049250313e-16,
        0.0,
        0.0,
        0.0,
        0.0,
        1.0
      ],
      "name": "Sketchfab_model"
    },
    {
      "children": [
        2
      ],
      "matrix": [
        1.0,
        0.0,
        0.0,
        0.0,
        0.0,
        0.0,
        1.0,
        0.0,
        0.0,
        -1.0,
        0.0,
        0.0,
        0.0,
        0.0,
        0.0,
        1.0
      ],
      "name": "c6fb6ce4073c402cb9bedc73f15e077c.fbx"
    },
    {
      "children": [
        3,
        5,
        7,
        9,
        11,
        13
      ],
      "name": "RootNode"
    },
    {
      "children": [
        4
      ],
      "matrix": [
        1.0,
        0.0,
        0.0,
        0.0,
        0.0,
        2.220446049250313e-16,
        -1.0,
        0.0,
        0.0,
        1.0,
        2.220446049250313e-16,
        0.0,
        0.0,
        0.0,
        0.0,
        1.0
      ],
      "name": "Plane001"
    },
    {
      "mesh": 0,
      "name": "Plane001_FLOOR_0"
    },
    {
      "children": [
        6
      ],
      "matrix": [
        1.0,
        0.0,
        0.0,
        0.0,
        0.0,
        2.220446049250313e-16,
        -1.0,
        0.0,
        0.0,
        1.0,
        2.220446049250313e-16,
        0.0,
        0.0,
        0.0,
        0.0,
        1.0
      ],
      "name": "COLOUR_DARK001"
    },
    {
      "mesh": 1,
      "name": "COLOUR_DARK001_COLOUR_DARK_0"
    },
    {
      "children": [
        8
      ],
      "matrix": [
        1.0,
        0.0,
        0.0,
        0.0,
        0.0,
        2.220446049250313e-16,
        -1.0,
        0.0,
        0.0,
        1.0,
        2.220446049250313e-16,
        0.0,
        0.0,
        0.0,
        0.0,
        1.0
      ],
      "name": "WOOD001"
    },
    {
      "mesh": 2,
      "name": "WOOD001_WOOD_0"
    },
    {
      "children": [
        10
      ],
      "matrix": [
        1.0,
        0.0,
        0.0,
        0.0,
        0.0,
        2.220446049250313e-16,
        -1.0,
        0.0,
        0.0,
        1.0,
        2.220446049250313e-16,
        0.0,
        0.0,
        0.0,
        0.0,
        1.0
      ],
      "name": "WOOD_EGDE001"
    },
    {
      "mesh": 3,
      "name": "WOOD_EGDE001_WOOD_EGDE_0"
    },
    {
      "children": [
        12
      ],
      "matrix": [
        1.0,
        0.0,
        0.0,
        0.0,
        0.0,
        2.220446049250313e-16,
        -1.0,
        0.0,
        0.0,
        1.0,
        2.220446049250313e-16,
        0.0,
        0.0,
        0.0,
        0.0,
        1.0
      ],
      "name": "COLOUR_BRIGHT001"
    },
    {
      "mesh": 4,
      "name": "COLOUR_BRIGHT001_COLOUR_BRIGHT_0"
    },
    {
      "children": [
        14
      ],
      "matrix": [
        1.0,
        0.0,
        0.0,
        0.0,
        0.0,
        2.220446049250313e-16,
        -1.0,
        0.0,
        0.0,
        1.0,
        2.220446049250313e-16,
        0.0,
        0.0,
        0.0,
        0.0,
        1.0
      ],
      "name": "COLOUR_MID001"
    },
    {
      "mesh": 5,
      "name": "COLOUR_MID001_COLOUR_MID_0"
    }
  ],
  "samplers": [
    {
      "magFilter": 9729,
      "minFilter": 9987,
      "wrapS": 10497,
      "wrapT": 10497
    }
  ],
  "scene": 0,
  "scenes": [
    {
      "name": "Sketchfab_Scene",
      "nodes": [
        0
      ]
    }
  ],
  "textures": [
    {
      "sampler": 0,
      "source": 0
    },
    {
      "sampler": 0,
      "source": 1
    }
  ]
}
