{
  "accessors": [
    {
      "bufferView": 2,
      "componentType": 5126,
      "count": 948,
      "max": [
        30.241851806640625,
        54.936439514160156,
        67.046478271484375
      ],
      "min": [
        -30.241851806640625,
        -36.104793548583984,
        -45.273258209228516
      ],
      "type": "VEC3"
    },
    {
      "bufferView": 2,
      "byteOffset": 11376,
      "componentType": 5126,
      "count": 948,
      "max": [
        0.99770945310592651,
        0.99993014335632324,
        0.99836981296539307
      ],
      "min": [
        -0.99770945310592651,
        -0.96366876363754272,
        -0.99999672174453735
      ],
      "type": "VEC3"
    },
    {
      "bufferView": 3,
      "componentType": 5126,
      "count": 948,
      "max": [
        0.99837005138397217,
        0.98410570621490479,
        0.80457240343093872,
        1
      ],
      "min": [
        -0.99837005138397217,
        -0.87917160987854004,
        -0.53843998908996582,
        -1
      ],
      "type": "VEC4"
    },
    {
      "bufferView": 1,
      "componentType": 5126,
      "count": 948,
      "max": [
        1,
        1
      ],
      "min": [
        0,
        -0.05375966802239418
      ],
      "type": "VEC2"
    },
    {
      "bufferView": 0,
      "componentType": 5125,
      "count": 948,
      "max": [
        947
      ],
      "min": [
        0
      ],
      "type": "SCALAR"
    },
    {
      "bufferView": 2,
      "byteOffset": 22752,
      "componentType": 5126,
      "count": 123,
      "max": [
        23.941379547119141,
        -14.386285781860352,
        68.7818603515625
      ],
      "min": [
        -23.941379547119141,
        -39.585071563720703,
        31.331550598144531
      ],
      "type": "VEC3"
    },
    {
      "bufferView": 2,
      "byteOffset": 24228,
      "componentType": 5126,
      "count": 123,
      "max": [
        0.90127021074295044,
        0.92707616090774536,
        0.99982470273971558
      ],
      "min": [
        -0.90127021074295044,
        -0.99431318044662476,
        -0.86051046848297119
      ],
      "type": "VEC3"
    },
    {
      "bufferView": 3,
      "byteOffset": 15168,
      "componentType": 5126,
      "count": 123,
      "max": [
        0.99028670787811279,
        1,
        0.29279407858848572,
        1
      ],
      "min": [
        -0.99028670787811279,
        -0.010863262228667736,
        -0.38043397665023804,
        -1
      ],
      "type": "VEC4"
    },
    {
      "bufferView": 1,
      "byteOffset": 7584,
      "componentType": 5126,
      "count": 123,
      "max": [
        1,
        1
      ],
      "min": [
        0.25,
        0
      ],
      "type": "VEC2"
    },
    {
      "bufferView": 0,
      "byteOffset": 3792,
      "componentType": 5125,
      "count": 123,
      "max": [
        122
      ],
      "min": [
        0
      ],
      "type": "SCALAR"
    },
    {
      "bufferView": 2,
      "byteOffset": 25704,
      "componentType": 5126,
      "count": 96,
      "max": [
        23.941379547119141,
        -12.847133636474609,
        68.7818603515625
      ],
      "min": [
        -23.941379547119141,
        -39.539470672607422,
        30.197027206420898
      ],
      "type": "VEC3"
    },
    {
      "bufferView": 2,
      "byteOffset": 26856,
      "componentType": 5126,
      "count": 96,
      "max": [
        0.91397696733474731,
        0.94376224279403687,
        0.92130768299102783
      ],
      "min": [
        -0.91397696733474731,
        -0.97544980049133301,
        -0.98061829805374146
      ],
      "type": "VEC3"
    },
    {
      "bufferView": 3,
      "byteOffset": 17136,
      "componentType": 5126,
      "count": 96,
      "max": [
        0.40035539865493774,
        0.88087195158004761,
        0.2525477409362793,
        1
      ],
      "min": [
        -0.40035542845726013,
        0,
        0,
        -1
      ],
      "type": "VEC4"
    },
    {
      "bufferView": 1,
      "byteOffset": 8568,
      "componentType": 5126,
      "count": 96,
      "max": [
        1,
        1
      ],
      "min": [
        0,
        0
      ],
      "type": "VEC2"
    },
    {
      "bufferView": 0,
      "byteOffset": 4284,
      "componentType": 5125,
      "count": 96,
      "max": [
        95
      ],
      "min": [
        0
      ],
      "type": "SCALAR"
    },
    {
      "bufferView": 2,
      "byteOffset": 28008,
      "componentType": 5126,
      "count": 3,
      "max": [
        23.941379547119141,
        -14.386285781860352,
        68.7818603515625
      ],
      "min": [
        15.24711799621582,
        -19.214189529418945,
        54.520229339599609
      ],
      "type": "VEC3"
    },
    {
      "bufferView": 2,
      "byteOffset": 28044,
      "componentType": 5126,
      "count": 3,
      "max": [
        0.34344810247421265,
        0.92707616090774536,
        -0.15024435520172119
      ],
      "min": [
        0.34344807267189026,
        0.92707610130310059,
        -0.15024437010288239
      ],
      "type": "VEC3"
    },
    {
      "bufferView": 3,
      "byteOffset": 18672,
      "componentType": 5126,
      "count": 3,
      "max": [
        0,
        0,
        0,
        1
      ],
      "min": [
        0,
        0,
        0,
        1
      ],
      "type": "VEC4"
    },
    {
      "bufferView": 1,
      "byteOffset": 9336,
      "componentType": 5126,
      "count": 3,
      "max": [
        0.5,
        1
      ],
      "min": [
        0.5,
        0.5
      ],
      "type": "VEC2"
    },
    {
      "bufferView": 0,
      "byteOffset": 4668,
      "componentType": 5125,
      "count": 3,
      "max": [
        2
      ],
      "min": [
        0
      ],
      "type": "SCALAR"
    },
    {
      "bufferView": 2,
      "byteOffset": 28080,
      "componentType": 5126,
      "count": 301,
      "max": [
        68.465690612792969,
        77.2042236328125,
        -44.743232727050781
      ],
      "min": [
        -66.336875915527344,
        -57.913307189941406,
        -60.114776611328125
      ],
      "type": "VEC3"
    },
    {
      "bufferView": 2,
      "byteOffset": 31692,
      "componentType": 5126,
      "count": 301,
      "max": [
        1,
        0.9976688027381897,
        1
      ],
      "min": [
        -0.99068611860275269,
        -0.99766874313354492,
        -1
      ],
      "type": "VEC3"
    },
    {
      "bufferView": 3,
      "byteOffset": 18720,
      "componentType": 5126,
      "count": 301,
      "max": [
        0.99881613254547119,
        0.99944460391998291,
        0.067871943116188049,
        1
      ],
      "min": [
        -0.99766027927398682,
        -1,
        -0.067871876060962677,
        -1
      ],
      "type": "VEC4"
    },
    {
      "bufferView": 1,
      "byteOffset": 9360,
      "componentType": 5126,
      "count": 301,
      "max": [
        1.0109139680862427,
        1
      ],
      "min": [
        0.0011655986309051514,
        0.0046570301055908203
      ],
      "type": "VEC2"
    },
    {
      "bufferView": 0,
      "byteOffset": 4680,
      "componentType": 5125,
      "count": 1092,
      "max": [
        300
      ],
      "min": [
        0
      ],
      "type": "SCALAR"
    }
  ],
  "asset": {
    "extras": {
      "author": "Jonathon.Lai (https://sketchfab.com/Jonathon.Lai)",
      "license": "CC-BY-4.0 (http://creativecommons.org/licenses/by/4.0/)",
      "source": "https://sketchfab.com/3d-models/pug-6a431b6ac7f0411a9ce275188572f3d0",
      "title": "Pug"
    },
    "generator": "Sketchfab-6.24.0",
    "version": "2.0"
  },
  "bufferViews": [
    {
      "buffer": 0,
      "byteLength": 9048,
      "byteOffset": 0,
      "name": "floatBufferViews",
      "target": 34963
    },
    {
      "buffer": 0,
      "byteLength": 11768,
      "byteOffset": 9048,
      "byteStride": 8,
      "name": "floatBufferViews",
      "target": 34962
    },
    {
      "buffer": 0,
      "byteLength": 35304,
      "byteOffset": 20816,
      "byteStride": 12,
      "name": "floatBufferViews",
      "target": 34962
    },
    {
      "buffer": 0,
      "byteLength": 23536,
      "byteOffset": 56120,
      "byteStride": 16,
      "name": "floatBufferViews",
      "target": 34962
    }
  ],
  "buffers": [
    {
      "byteLength": 79656,
      "uri": "scene.bin"
    }
  ],
  "materials": [
    {
      "doubleSided": true,
      "emissiveFactor": [
        0,
        0,
        0
      ],
      "name": "01_-_Default",
      "pbrMetallicRoughness": {
        "baseColorFactor": [
          0.62745099999999998,
          0.43137300000000001,
          0.33725500000000003,
          1
        ],
        "metallicFactor": 0,
        "roughnessFactor": 0.59999999999999998
      }
    },
    {
      "doubleSided": true,
      "emissiveFactor": [
        0,
        0,
        0
      ],
      "name": "03_-_Default",
      "pbrMetallicRoughness": {
        "baseColorFactor": [
          0.0313726,
          0.0313726,
          0.0313726,
          1
        ],
        "metallicFactor": 0,
        "roughnessFactor": 0.59999999999999998
      }
    },
    {
      "doubleSided": true,
      "emissiveFactor": [
        0,
        0,
        0
      ],
      "name": "02_-_Default",
      "pbrMetallicRoughness": {
        "baseColorFactor": [
          0.090196100000000001,
          0.090196100000000001,
          0.090196100000000001,
          1
        ],
        "metallicFactor": 0,
        "roughnessFactor": 0.59999999999999998
      }
    },
    {
      "doubleSided": true,
      "emissiveFactor": [
        0,
        0,
        0
      ],
      "name": "Material_0",
      "pbrMetallicRoughness": {
        "baseColorFactor": [
          0.58799999999999997,
          0.58799999999999997,
          0.58799999999999997,
          1
        ],
        "metallicFactor": 0,
        "roughnessFactor": 0.59999999999999998
      }
    },
    {
      "doubleSided": true,
      "emissiveFactor": [
        0,
        0,
        0
      ],
      "name": "07_-_Default",
      "pbrMetallicRoughness": {
        "baseColorFactor": [
          0.4467292081,
          0.024551276800000001,
          0.024551276800000001,
          1
        ],
        "metallicFactor": 0,
        "roughnessFactor": 0.59999999999999998
      }
    }
  ],
  "meshes": [
    {
      "name": "Box001_01 - Default_0",
      "primitives": [
        {
          "attributes": {
            "NORMAL": 1,
            "POSITION": 0,
            "TANGENT": 2,
            "TEXCOORD_0": 3
          },
          "indices": 4,
          "material": 0,
          "mode": 4
        }
      ]
    },
    {
      "name": "Box001_03 - Default_0",
      "primitives": [
        {
          "attributes": {
            "NORMAL": 6,
            "POSITION": 5,
            "TANGENT": 7,
            "TEXCOORD_0": 8
          },
          "indices": 9,
          "material": 1,
          "mode": 4
        }
      ]
    },
    {
      "name": "Box001_02 - Default_0",
      "primitives": [
        {
          "attributes": {
            "NORMAL": 11,
            "POSITION": 10,
            "TANGENT": 12,
            "TEXCOORD_0": 13
          },
          "indices": 14,
          "material": 2,
          "mode": 4
        }
      ]
    },
    {
      "name": "Box001_Material #0_0",
      "primitives": [
        {
          "attributes": {
            "NORMAL": 16,
            "POSITION": 15,
            "TANGENT": 17,
            "TEXCOORD_0": 18
          },
          "indices": 19,
          "material": 3,
          "mode": 4
        }
      ]
    },
    {
      "name": "Object001_07 - Default_0",
      "primitives": [
        {
          "attributes": {
            "NORMAL": 21,
            "POSITION": 20,
            "TANGENT": 22,
            "TEXCOORD_0": 23
          },
          "indices": 24,
          "material": 4,
          "mode": 4
        }
      ]
    }
  ],
  "nodes": [
    {
      "children": [
        1
      ],
      "name": "RootNode (gltf orientation matrix)",
      "rotation": [
        -0.70710678118654746,
        -0,
        -0,
        0.70710678118654757
      ]
    },
    {
      "children": [
        2
      ],
      "name": "RootNode (model correction matrix)"
    },
    {
      "children": [
        3
      ],
      "matrix": [
        1,
        0,
        0,
        0,
        0,
        0,
        1,
        0,
        0,
        -1,
        0,
        0,
        0,
        0,
        0,
        1
      ],
      "name": "4bf296f4ff2e4172b5d4955c67c35732.fbx"
    },
    {
      "children": [
        4,
        10
      ],
      "name": "RootNode"
    },
    {
      "children": [
        5
      ],
      "matrix": [
        1,
        0,
        0,
        0,
        0,
        2.2204460492503131e-16,
        -1,
        0,
        0,
        1,
        2.2204460492503131e-16,
        0,
        8.5029754638671875,
        19.519386291503906,
        0,
        1
      ],
      "name": "Box001"
    },
    {
      "children": [
        6,
        7,
        8,
        9
      ],
      "matrix": [
        1,
        0,
        -0,
        0,
        0,
        1,
        0,
        0,
        0,
        0,
        1,
        0,
        -1.0644073486328125,
        -9.6454582214355469,
        45.273258209228516,
        1
      ],
      "name": ""
    },
    {
      "mesh": 0,
      "name": "Box001_01 - Default_0"
    },
    {
      "mesh": 1,
      "name": "Box001_03 - Default_0"
    },
    {
      "mesh": 2,
      "name": "Box001_02 - Default_0"
    },
    {
      "mesh": 3,
      "name": "Box001_Material #0_0"
    },
    {
      "children": [
        11
      ],
      "matrix": [
        1,
        0,
        0,
        0,
        0,
        2.2204460492503131e-16,
        -1,
        0,
        0,
        1,
        2.2204460492503131e-16,
        0,
        6.2696685791015625,
        0.11627197265625,
        0,
        1
      ],
      "name": "Object001"
    },
    {
      "children": [
        12
      ],
      "matrix": [
        1,
        0,
        -0,
        0,
        0,
        1,
        0,
        0,
        0,
        0,
        1,
        0,
        -1.0644073486328125,
        -9.6454582214355469,
        64.736961364746094,
        1
      ],
      "name": ""
    },
    {
      "mesh": 4,
      "name": "Object001_07 - Default_0"
    }
  ],
  "scene": 0,
  "scenes": [
    {
      "name": "OSG_Scene",
      "nodes": [
        0
      ]
    }
  ]
}

